<svg xmlns="http://www.w3.org/2000/svg" width="128" height="128" viewBox="0 0 128 128">
  <defs><filter id="g"><feGaussianBlur stdDeviation="2.5" result="b"/><feMerge><feMergeNode in="b"/><feMergeNode in="SourceGraphic"/></feMerge></filter></defs>
  <rect width="128" height="128" rx="16" fill="#060300"/>
  <!-- bug body -->
  <ellipse cx="64" cy="60" rx="22" ry="28" fill="#1a0505" stroke="#f59e0b" stroke-width="2.5" filter="url(#g)"/>
  <!-- bug head -->
  <circle cx="64" cy="34" r="14" fill="#1a0505" stroke="#f59e0b" stroke-width="2.5"/>
  <circle cx="58" cy="32" r="3" fill="#f59e0b" filter="url(#g)"/>
  <circle cx="70" cy="32" r="3" fill="#f59e0b" filter="url(#g)"/>
  <!-- antenki -->
  <line x1="58" y1="22" x2="50" y2="12" stroke="#f59e0b" stroke-width="2" stroke-linecap="round"/>
  <line x1="70" y1="22" x2="78" y2="12" stroke="#f59e0b" stroke-width="2" stroke-linecap="round"/>
  <!-- nogi -->
  <g stroke="#f59e0b" stroke-width="2" stroke-linecap="round">
    <line x1="42" y1="52" x2="26" y2="46"/>
    <line x1="42" y1="64" x2="26" y2="64"/>
    <line x1="42" y1="76" x2="26" y2="82"/>
    <line x1="86" y1="52" x2="102" y2="46"/>
    <line x1="86" y1="64" x2="102" y2="64"/>
    <line x1="86" y1="76" x2="102" y2="82"/>
  </g>
  <!-- bash: młot -->
  <rect x="80" y="82" width="32" height="10" rx="3" fill="#ef4444" transform="rotate(-45 80 82)" filter="url(#g)"/>
  <text x="64" y="116" font-size="11" font-weight="700" font-family="Arial" fill="rgba(245,158,11,0.5)" text-anchor="middle" letter-spacing="1">BUG BASH</text>
</svg>
