<svg xmlns="http://www.w3.org/2000/svg" width="96" height="96" viewBox="0 0 96 96">
  <defs>
    <radialGradient id="fire-core" cx="50%" cy="80%" r="60%">
      <stop offset="0%" stop-color="#fde68a"/>
      <stop offset="50%" stop-color="#f97316"/>
      <stop offset="100%" stop-color="#dc2626" stop-opacity="0"/>
    </radialGradient>
    <filter id="glow-f">
      <feGaussianBlur stdDeviation="2.8" result="b"/>
      <feMerge><feMergeNode in="b"/><feMergeNode in="SourceGraphic"/></feMerge>
    </filter>
  </defs>
  <rect x="2" y="2" width="92" height="92" rx="18" fill="#1a0505" stroke="#f97316" stroke-width="2.5"/>
  <!-- budynek w ogniu -->
  <rect x="20" y="46" width="56" height="36" rx="3" fill="#374151"/>
  <rect x="26" y="52" width="10" height="12" rx="1" fill="#111827"/>
  <rect x="42" y="52" width="10" height="12" rx="1" fill="#111827"/>
  <rect x="58" y="52" width="10" height="12" rx="1" fill="#111827"/>
  <rect x="38" y="64" width="20" height="18" rx="2" fill="#111827"/>
  <!-- dach -->
  <path d="M16 48 L48 28 L80 48 Z" fill="#1f2937"/>
  <!-- płomień 1 (środkowy) -->
  <path d="M48 44 C44 38 42 32 46 26 C42 29 39 34 41 40 C37 36 38 30 42 24 C36 28 34 36 36 44 C32 40 34 32 38 28 C30 34 29 44 34 50 L62 50 C66 44 65 34 58 28 C62 32 62 40 58 44 C60 36 58 28 52 24 C56 30 56 36 52 40 C54 34 51 29 48 26 C50 32 50 38 48 44 Z" fill="url(#fire-core)" filter="url(#glow-f)"/>
</svg>
