<svg xmlns="http://www.w3.org/2000/svg" width="256" height="256" viewBox="0 0 256 256">
  <defs><filter id="g"><feGaussianBlur stdDeviation="4" result="b"/><feMerge><feMergeNode in="b"/><feMergeNode in="SourceGraphic"/></feMerge></filter></defs>
  <rect width="256" height="256" rx="24" fill="#04060e"/>
  <rect x="2" y="2" width="252" height="252" rx="23" fill="none" stroke="rgba(74,222,128,0.2)" stroke-width="1.5"/>
  <!-- ręka przekazująca (handoff) -->
  <!-- lewa ręka (oddaje) -->
  <path d="M40 160 C40 140 60 130 80 130 L120 130 C120 130 140 128 140 110 C140 95 120 90 110 100"
        fill="none" stroke="#38bdf8" stroke-width="6" stroke-linecap="round" filter="url(#g)"/>
  <!-- strzałka przekazania -->
  <line x1="128" y1="128" x2="196" y2="128" stroke="#4ade80" stroke-width="6" stroke-linecap="round" filter="url(#g)"/>
  <polygon points="196,118 216,128 196,138" fill="#4ade80" filter="url(#g)"/>
  <!-- prawa ręka (odbiera) -->
  <path d="M216 160 C216 140 196 130 176 130 L160 130"
        fill="none" stroke="#4ade80" stroke-width="6" stroke-linecap="round" filter="url(#g)"/>
  <!-- paczka/dokument w środku -->
  <rect x="102" y="90" width="52" height="40" rx="6" fill="#0d1a2d" stroke="#fbbf24" stroke-width="2" filter="url(#g)"/>
  <line x1="114" y1="105" x2="142" y2="105" stroke="#fbbf24" stroke-width="2"/>
  <line x1="114" y1="115" x2="136" y2="115" stroke="#fbbf24" stroke-width="2"/>
  <!-- etykieta -->
  <text x="128" y="200" font-size="22" font-weight="700" font-family="Arial" fill="#4ade80" text-anchor="middle" letter-spacing="2">FINAL HANDOFF</text>
  <text x="128" y="228" font-size="16" font-family="Arial" fill="rgba(74,222,128,0.5)" text-anchor="middle">PRZEKAZANIE GOTOWE</text>
</svg>
