<svg xmlns="http://www.w3.org/2000/svg" width="128" height="128" viewBox="0 0 128 128">
  <defs><filter id="g"><feGaussianBlur stdDeviation="2" result="b"/><feMerge><feMergeNode in="b"/><feMergeNode in="SourceGraphic"/></feMerge></filter></defs>
  <rect width="128" height="128" rx="16" fill="#030710"/>
  <!-- dokument -->
  <rect x="22" y="14" width="84" height="100" rx="10" fill="#06101e" stroke="rgba(56,189,248,0.2)" stroke-width="1.5"/>
  <rect x="22" y="14" width="84" height="24" rx="10" fill="#0d1a2d"/>
  <rect x="22" y="30" width="84" height="8" fill="#0d1a2d"/>
  <text x="64" y="30" font-size="10" font-weight="700" font-family="Arial" fill="#38bdf8" text-anchor="middle">v1.0 NOTES</text>
  <!-- linie changelog -->
  <rect x="30" y="48" width="6" height="6" rx="1" fill="#4ade80"/>
  <rect x="42" y="50" width="54" height="4" rx="2" fill="rgba(255,255,255,0.12)"/>
  <rect x="30" y="62" width="6" height="6" rx="1" fill="#4ade80"/>
  <rect x="42" y="64" width="44" height="4" rx="2" fill="rgba(255,255,255,0.12)"/>
  <rect x="30" y="76" width="6" height="6" rx="1" fill="#fbbf24"/>
  <rect x="42" y="78" width="52" height="4" rx="2" fill="rgba(255,255,255,0.12)"/>
  <rect x="30" y="90" width="6" height="6" rx="1" fill="#ef4444"/>
  <rect x="42" y="92" width="40" height="4" rx="2" fill="rgba(255,255,255,0.12)"/>
  <!-- numer wersji -->
  <text x="64" y="112" font-size="13" font-weight="700" font-family="Arial" fill="#38bdf8" text-anchor="middle" filter="url(#g)">v1.0.0</text>
</svg>
