<svg xmlns="http://www.w3.org/2000/svg" width="256" height="256" viewBox="0 0 256 256">
  <defs>
    <filter id="glow-hud">
      <feGaussianBlur stdDeviation="3" result="b"/>
      <feMerge><feMergeNode in="b"/><feMergeNode in="SourceGraphic"/></feMerge>
    </filter>
  </defs>
  <rect width="256" height="256" rx="24" fill="#04080f"/>
  <rect x="2" y="2" width="252" height="252" rx="23" fill="none" stroke="rgba(56,189,248,0.2)" stroke-width="1.5"/>

  <!-- górny pasek HUD -->
  <rect x="12" y="12" width="232" height="36" rx="8" fill="#0d1a2d" stroke="rgba(56,189,248,0.15)" stroke-width="1"/>
  <!-- czas -->
  <text x="128" y="35" font-size="20" font-weight="800" font-family="Arial" fill="#38bdf8" text-anchor="middle">14:22 — DYŻUR AKTYWNY</text>
  <!-- mapa mini (lewy bottom) -->
  <rect x="12" y="56" width="100" height="108" rx="8" fill="#020810" stroke="rgba(56,189,248,0.15)" stroke-width="1"/>
  <g stroke="rgba(56,189,248,0.08)" stroke-width="1">
    <line x1="12" y1="80"  x2="112" y2="80"/>
    <line x1="12" y1="104" x2="112" y2="104"/>
    <line x1="12" y1="128" x2="112" y2="128"/>
    <line x1="12" y1="152" x2="112" y2="152"/>
    <line x1="36" y1="56"  x2="36"  y2="164"/>
    <line x1="60" y1="56"  x2="60"  y2="164"/>
    <line x1="84" y1="56"  x2="84"  y2="164"/>
  </g>
  <!-- marker incydentu na mapie -->
  <circle cx="72" cy="100" r="8" fill="#7f1d1d" stroke="#ef4444" stroke-width="1.5" filter="url(#glow-hud)"/>
  <circle cx="40" cy="136" r="6" fill="#1e3a5f" stroke="#38bdf8" stroke-width="1.5" filter="url(#glow-hud)"/>

  <!-- lista incydentów (prawa kolumna) -->
  <rect x="120" y="56" width="124" height="48" rx="8" fill="#1a0505" stroke="rgba(239,68,68,0.4)" stroke-width="1.5"/>
  <rect x="124" y="60" width="4" height="40" rx="2" fill="#ef4444" filter="url(#glow-hud)"/>
  <text x="136" y="77" font-size="10" font-weight="700" font-family="Arial" fill="#fca5a5">POŻAR BUDYNKU</text>
  <text x="136" y="93" font-size="9" font-family="Arial" fill="#64748b">ul. Żelazna 14 · P3</text>

  <rect x="120" y="110" width="124" height="48" rx="8" fill="#0d2035" stroke="rgba(56,189,248,0.3)" stroke-width="1.5"/>
  <rect x="124" y="114" width="4" height="40" rx="2" fill="#38bdf8"/>
  <text x="136" y="131" font-size="10" font-weight="700" font-family="Arial" fill="#7dd3fc">WYPADEK DROGOWY</text>
  <text x="136" y="147" font-size="9" font-family="Arial" fill="#64748b">ul. Marszałk. 88 · P2</text>

  <!-- dolny pasek — role statusy -->
  <rect x="12" y="172" width="232" height="72" rx="8" fill="rgba(255,255,255,0.03)" stroke="rgba(255,255,255,0.08)" stroke-width="1"/>
  <!-- 4 role -->
  <rect x="20" y="180" width="48" height="56" rx="6" fill="#1e3a5f" stroke="#38bdf8" stroke-width="1"/>
  <circle cx="44" cy="196" r="8" fill="#38bdf8" opacity=".3"/>
  <text x="44" y="199" font-size="7" font-weight="700" font-family="Arial" fill="#38bdf8" text-anchor="middle">OP</text>
  <text x="44" y="222" font-size="8" font-family="Arial" fill="#38bdf8" text-anchor="middle">●</text>

  <rect x="74" y="180" width="48" height="56" rx="6" fill="#431407" stroke="#fb923c" stroke-width="1"/>
  <circle cx="98" cy="196" r="8" fill="#fb923c" opacity=".3"/>
  <text x="98" y="199" font-size="7" font-weight="700" font-family="Arial" fill="#fb923c" text-anchor="middle">DY</text>
  <text x="98" y="222" font-size="8" font-family="Arial" fill="#fb923c" text-anchor="middle">●</text>

  <rect x="128" y="180" width="48" height="56" rx="6" fill="#052e16" stroke="#4ade80" stroke-width="1"/>
  <circle cx="152" cy="196" r="8" fill="#4ade80" opacity=".3"/>
  <text x="152" y="199" font-size="7" font-weight="700" font-family="Arial" fill="#4ade80" text-anchor="middle">CO</text>
  <text x="152" y="222" font-size="8" font-family="Arial" fill="#4ade80" text-anchor="middle">●</text>

  <rect x="182" y="180" width="48" height="56" rx="6" fill="#1a0505" stroke="#f87171" stroke-width="1" opacity=".6"/>
  <circle cx="206" cy="196" r="8" fill="#f87171" opacity=".15"/>
  <text x="206" y="199" font-size="7" font-weight="700" font-family="Arial" fill="#6b7280" text-anchor="middle">CR</text>
  <text x="206" y="213" font-size="8" font-family="Arial" fill="#6b7280" text-anchor="middle">BOT</text>
  <text x="206" y="222" font-size="8" font-family="Arial" fill="#6b7280" text-anchor="middle">○</text>
</svg>