<svg xmlns="http://www.w3.org/2000/svg" width="96" height="96" viewBox="0 0 96 96">
  <defs><filter id="glow-rp2"><feGaussianBlur stdDeviation="2" result="b"/><feMerge><feMergeNode in="b"/><feMergeNode in="SourceGraphic"/></feMerge></filter></defs>
  <rect width="96" height="96" rx="14" fill="#060900"/>
  <!-- ekran raportu z gwiazdkami -->
  <rect x="8" y="14" width="80" height="60" rx="8" fill="#0a0f04" stroke="rgba(251,191,36,0.25)" stroke-width="1.5"/>
  <!-- tytuł RAPORT -->
  <rect x="8" y="14" width="80" height="18" rx="8" fill="#1a2e0a"/>
  <rect x="8" y="24" width="80" height="8" fill="#1a2e0a"/>
  <text x="48" y="26" font-size="9" font-weight="700" font-family="Arial" fill="#fbbf24" text-anchor="middle">RAPORT</text>
  <!-- gwiazdki -->
  <polygon points="25,44 28,36 31,44 39,44 33,49 35,57 28,52 21,57 23,49 17,44" fill="#fbbf24" filter="url(#glow-rp2)"/>
  <polygon points="48,44 51,36 54,44 62,44 56,49 58,57 51,52 44,57 46,49 40,44" fill="#fbbf24" filter="url(#glow-rp2)"/>
  <polygon points="71,44 74,36 77,44 85,44 79,49 81,57 74,52 67,57 69,49 63,44" fill="rgba(251,191,36,0.25)" stroke="#92400e" stroke-width="1"/>
  <!-- wynik -->
  <text x="48" y="68" font-size="11" font-weight="800" font-family="Arial" fill="#fbbf24" text-anchor="middle" filter="url(#glow-rp2)">8240 PKT</text>
  <!-- pasek na dole -->
  <rect x="14" y="76" width="68" height="12" rx="4" fill="#1a2e0a" stroke="rgba(74,222,128,0.3)" stroke-width="1"/>
  <text x="48" y="86" font-size="8" font-weight="600" font-family="Arial" fill="#4ade80" text-anchor="middle">DALEJ →</text>
</svg>
